<svg width="560" height="165" viewBox="0 0 560 165" fill="none" xmlns="http://www.w3.org/2000/svg">
<path d="M490.061 90.7705V78.0984H490.088L500.42 90.7705H508.948V71.5067H502.249V84.0174H502.222L491.891 71.5067H483.362V90.7705H490.061ZM518.736 90.7705V84.0174H530.359V79.9817H518.736V76.4841H531.973V71.5067H511.633V90.7705H518.736ZM547.445 90.7705V76.4841H554.925V71.5067H532.863V76.4841H540.343V90.7705H547.445Z" fill="white"/>
<path d="M164.954 81.5282V23.4967H195.278V3.27862H105.833V23.4967H136.157V81.5282H164.954Z" fill="white"/>
<path d="M361.862 81.5282V64.5887L369.061 59.2336L386.078 81.5282H415.747L387.277 46.3377L415.42 25.136H383.241L361.971 41.5291H361.862V3.27862L335.683 0V81.5282H361.862Z" fill="white"/>
<path d="M348.009 104.772C333.72 104.772 323.139 111.001 317.794 120.728L318.492 119.526V106.63H292.487V163.022H318.558V137.575C318.558 126.864 325.102 119.526 336.01 119.526C345.5 119.526 350.845 124.772 350.845 133.624V163.022H376.915L377.024 131.001C377.133 114.826 365.789 104.772 348.009 104.772Z" fill="white"/>
<path d="M521.386 164.771C543.529 164.771 560 158.541 560 144.334C560 133.296 549.855 128.378 528.694 126.739L515.168 125.755C508.296 125.099 505.024 124.116 505.024 122.039C505.024 119.198 512.005 117.777 520.949 117.777C531.094 117.777 541.893 120.4 548.983 124.007L554.764 112.094C544.729 107.176 532.948 104.772 521.277 104.772C499.133 104.772 482.99 111.111 482.99 125.318C482.99 135.372 492.479 140.072 511.787 141.383L525.531 142.476C533.384 143.022 537.311 144.334 537.311 146.52C537.311 149.143 531.966 150.891 519.749 150.891C506.987 150.891 492.698 147.394 484.844 142.585L478.517 155.918C488.116 161.273 505.46 164.771 521.386 164.771Z" fill="white"/>
<path d="M328 81.737V46.5C328 46.5 323 51.5 314.383 51.5C306.5 51.5 301 46.5 301 46.5V81.737H328Z" fill="white"/>
<path d="M192 163.737V128.5C192 128.5 187 133.5 178.383 133.5C170.5 133.5 165 128.5 165 128.5V163.737H192Z" fill="white"/>
<ellipse cx="178.5" cy="114.5" rx="12.5" ry="10.5" fill="white"/>
<ellipse cx="314.344" cy="32.7822" rx="12.5" ry="10.5" fill="white"/>
<ellipse cx="433.343" cy="32.7822" rx="12.5" ry="10.5" fill="white"/>
<path d="M447 81.737V46.5C447 46.5 442 51.5 433.383 51.5C425.5 51.5 420 46.5 420 46.5V81.737H447Z" fill="white"/>
<path d="M136.729 106C126.476 106 117.095 111.792 112.95 121.191H112.841V107.858H87.6431V164.25H113.822V138.677C113.822 128.295 117.801 124.228 125 124.228C130.236 124.228 134.438 127.092 134.766 135.617L158.5 127.228C157.736 111.928 149.273 106 136.729 106Z" fill="white"/>
<path d="M28.7971 164.25V136.818H75.9196V120.425H28.7971V106.218H82.4644V86H0V164.25H28.7971Z" fill="white"/>
<path d="M248.086 164.999C263.139 164.999 277.538 161.72 285.173 156.911L278.192 144.562C272.411 147.841 261.066 150.245 249.831 150.245C239.25 150.245 229.433 147.622 226.488 140.846H285.5C286.046 138.988 286.264 136.693 286.264 135.163C286.264 116.912 269.357 105 243.614 105C217.325 105 199 117.349 199 134.945C199 153.305 218.853 164.999 248.086 164.999ZM226.052 129.917C227.034 123.47 234.124 119.098 243.396 119.098C252.449 119.098 259.648 123.47 259.976 129.917H226.052Z" fill="white"/>
<path d="M416.345 165C430.526 165 442.633 158.443 446.997 148.388H447.106L450.596 163.251H473.176V81.7231H446.997V121.504H446.888C442.524 111.559 430.416 105.001 416.236 105.001C396.384 105.001 383.294 116.914 383.294 135.055C383.294 153.088 396.384 165 416.345 165ZM428.671 147.842C417.109 147.842 409.473 142.705 409.473 135.055C409.473 127.405 417.109 122.269 428.671 122.269C440.234 122.269 447.869 127.405 447.869 135.055C447.869 142.705 440.234 147.842 428.671 147.842Z" fill="white"/>
<path d="M220.361 81.9986C236.177 81.9986 248.94 76.3157 254.176 67.3542H254.285L254.394 68.3377C255.594 76.8621 263.666 81.9986 276.101 81.9986C284.827 81.9986 290.463 79.9222 294.389 76.5343V63.3105C292.644 64.622 287.554 67.1356 285.263 67.1356C281.991 67.1356 280.027 65.387 280.027 62.4362V43.8574C280.027 30.0873 263.775 22 238.686 22C220.906 22 207.027 28.7218 196.305 32.2218V45.4967C213.527 37.7218 226.527 35.2218 238.686 35.7218C248.176 35.7218 254.285 38.3931 254.285 41.3438C254.285 42.4367 252.867 43.311 250.576 43.5296L228.978 45.4967C205.417 47.6825 192 55.4419 192 66.5892C192 76.425 202.472 81.9986 220.361 81.9986ZM229.742 66.5892C222.215 66.5892 218.179 65.0591 218.179 62.2177C218.179 59.3762 222.433 57.6276 230.723 56.9719L253.848 54.8954V55.6604C253.848 62.1084 244.358 66.5892 229.742 66.5892Z" fill="white"/>
</svg>
