<svg width="40" height="40" viewBox="0 0 40 40" fill="none" xmlns="http://www.w3.org/2000/svg">
<path d="M29.1664 3.33325C30.6945 3.33337 32.1861 3.80026 33.4416 4.67143C34.697 5.54261 35.6564 6.77649 36.1913 8.20792C36.7262 9.63935 36.8111 11.2 36.4346 12.681C36.0582 14.162 35.2383 15.4927 34.0847 16.4949C34.6764 18.1066 34.9997 19.8499 34.9997 21.6666C34.9985 23.8581 34.5171 26.0227 33.5894 28.0081C32.6617 29.9935 31.3102 31.7516 29.63 33.1586C27.9498 34.5655 25.9817 35.5872 23.8642 36.1519C21.7467 36.7164 19.5312 36.8102 17.3736 36.4265C15.2159 36.0429 13.1686 35.1911 11.3755 33.9311C9.58248 32.6711 8.08729 31.0335 6.99514 29.1336C5.903 27.2336 5.24044 25.1174 5.05406 22.9339C4.86769 20.7503 5.16203 18.5525 5.91638 16.4949C5.09986 15.7854 4.4465 14.9076 4.00112 13.9217C3.55574 12.9359 3.32888 11.8654 3.3361 10.7837C3.34333 9.70199 3.58447 8.63462 4.04299 7.65485C4.5015 6.67508 5.16654 5.80609 5.99247 5.1075C6.8184 4.40891 7.78567 3.89725 8.82793 3.60763C9.87019 3.31801 10.9628 3.25728 12.0307 3.4296C13.0986 3.60193 14.1167 4.00323 15.0149 4.60598C15.9132 5.20873 16.6704 5.99867 17.2347 6.92159C19.0634 6.58037 20.9394 6.58037 22.7681 6.92159C23.4373 5.82495 24.3773 4.91889 25.4978 4.29048C26.6184 3.66206 27.8817 3.33243 29.1664 3.33325ZM16.6664 21.6666H13.3331C13.333 23.4058 14.0127 25.0762 15.2271 26.3214C16.4414 27.5665 18.0943 28.2878 19.833 28.3313C21.5717 28.3748 23.2586 27.737 24.5337 26.5542C25.8088 25.3713 26.5711 23.737 26.6581 21.9999L26.6664 21.6666H23.333C23.3369 22.5316 23.0044 23.3642 22.4058 23.9885C21.8071 24.6128 20.9892 24.98 20.1248 25.0125C19.2604 25.0449 18.4173 24.7401 17.7735 24.1624C17.1297 23.5847 16.7357 22.7794 16.6747 21.9166L16.6664 21.6666Z" fill="#3DB854"/>
</svg>
