<svg width="363" height="243" viewBox="0 0 363 243" fill="none" xmlns="http://www.w3.org/2000/svg">
<circle cx="313.5" cy="124.5" r="4" stroke="#9C9CA8"/>
<circle cx="313.5" cy="132.5" r="4" stroke="#9C9CA8"/>
<circle cx="313.5" cy="140.5" r="4" stroke="#9C9CA8"/>
<circle cx="313.5" cy="148.5" r="4" stroke="#9C9CA8"/>
<circle cx="313.5" cy="156.5" r="4" stroke="#9C9CA8"/>
<circle cx="313.5" cy="164.5" r="4" stroke="#9C9CA8"/>
<rect x="309" y="169" width="9" height="15" rx="2" fill="white"/>
<ellipse cx="177.5" cy="156.623" rx="5.5" ry="6.5" fill="#9C9CA8"/>
<ellipse cx="195.91" cy="137.106" rx="5.96629" ry="6.39245" transform="rotate(-40.4618 195.91 137.106)" fill="#9C9CA8"/>
<circle cx="184" cy="161.123" r="6" fill="#9C9CA8"/>
<circle cx="203.587" cy="135.599" r="5.96629" transform="rotate(-40.4618 203.587 135.599)" fill="#9C9CA8"/>
<circle cx="184" cy="154.123" r="6" fill="#9C9CA8"/>
<circle cx="199.161" cy="130.411" r="5.96629" transform="rotate(-40.4618 199.161 130.411)" fill="#9C9CA8"/>
<path d="M164 173C164 168.582 167.582 165 172 165H212C216.418 165 220 168.582 220 173V231C220 237.627 214.627 243 208 243H176C169.373 243 164 237.627 164 231V173Z" fill="#1A4E8B"/>
<path d="M235 203.5C235 215.02 227.141 223 219 223C210.859 223 203 215.02 203 203.5C203 191.98 210.859 184 219 184C227.141 184 235 191.98 235 203.5Z" stroke="#1A4E8B" stroke-width="10"/>
<rect x="294.07" y="121" width="110" height="7" transform="rotate(90 294.07 121)" fill="#9D9D9D"/>
<path d="M244.892 17.6625C247.363 7.3067 256.618 0 267.264 0H315.194C325.798 0 335.028 7.25025 337.54 17.553L356.066 93.553C359.596 108.036 348.627 122 333.72 122H249.133C234.272 122 223.312 108.118 226.761 93.6626L244.892 17.6625Z" fill="#A2A2A2"/>
<path d="M244.892 17.6625C247.363 7.3067 256.618 0 267.264 0H315.194C325.798 0 335.028 7.25025 337.54 17.553L356.066 93.553C359.596 108.036 348.627 122 333.72 122H249.133C234.272 122 223.312 108.118 226.761 93.6626L244.892 17.6625Z" fill="white"/>
<path d="M245.07 239C245.07 234.582 248.652 231 253.07 231H328.07C332.489 231 336.07 234.582 336.07 239V243H245.07V239Z" fill="#9D9D9D"/>
<path d="M207 165V188" stroke="#1C2128" stroke-width="4"/>
<rect x="198" y="180" width="17" height="16" rx="2" fill="#DFDBB9"/>
<rect y="216" width="157" height="27" rx="8" fill="#996D2B"/>
<rect y="190" width="157" height="27" rx="8" fill="#15662C"/>
</svg>
