<svg width="40" height="40" viewBox="0 0 40 40" fill="none" xmlns="http://www.w3.org/2000/svg">
<path d="M4.66778 8.66672L11.6678 13.3334L18.6444 3.56672C18.7986 3.35067 19.0022 3.17456 19.2381 3.05306C19.4741 2.93155 19.7357 2.86816 20.0011 2.86816C20.2665 2.86816 20.5281 2.93155 20.7641 3.05306C21.0001 3.17456 21.2036 3.35067 21.3578 3.56672L28.3344 13.3334L35.3344 8.66672C35.5994 8.49047 35.9092 8.39373 36.2274 8.38795C36.5455 8.38217 36.8587 8.46758 37.1298 8.63409C37.401 8.8006 37.6188 9.04126 37.7575 9.32761C37.8963 9.61397 37.9501 9.93406 37.9128 10.2501L35.1744 33.5284C35.1267 33.9338 34.9318 34.3076 34.6267 34.5789C34.3217 34.8501 33.9277 35 33.5194 35.0001H6.48278C6.07456 35 5.68055 34.8501 5.37549 34.5789C5.07043 34.3076 4.87554 33.9338 4.82778 33.5284L2.08944 10.2484C2.05244 9.93253 2.10659 9.61267 2.24548 9.32658C2.38437 9.0405 2.60222 8.80012 2.8733 8.63382C3.14438 8.46753 3.45738 8.38227 3.77534 8.3881C4.09331 8.39393 4.40297 8.4906 4.66778 8.66672ZM20.0011 25.0001C20.8852 25.0001 21.733 24.6489 22.3581 24.0237C22.9833 23.3986 23.3344 22.5508 23.3344 21.6667C23.3344 20.7827 22.9833 19.9348 22.3581 19.3097C21.733 18.6846 20.8852 18.3334 20.0011 18.3334C19.1171 18.3334 18.2692 18.6846 17.6441 19.3097C17.019 19.9348 16.6678 20.7827 16.6678 21.6667C16.6678 22.5508 17.019 23.3986 17.6441 24.0237C18.2692 24.6489 19.1171 25.0001 20.0011 25.0001Z" fill="#DEB113"/>
</svg>
