<svg width="28" height="28" viewBox="0 0 28 28" fill="none" xmlns="http://www.w3.org/2000/svg">
<path d="M21.4705 6.45323C20.0045 5.78059 18.4325 5.28502 16.7889 5.00119C16.759 4.99571 16.7291 5.0094 16.7137 5.03678C16.5115 5.39636 16.2875 5.86547 16.1307 6.23418C14.3629 5.96952 12.6041 5.96952 10.8726 6.23418C10.7157 5.85727 10.4836 5.39636 10.2806 5.03678C10.2651 5.01032 10.2352 4.99663 10.2053 5.00119C8.56258 5.28412 6.99058 5.77969 5.52373 6.45323C5.51103 6.4587 5.50015 6.46784 5.49292 6.4797C2.51117 10.9344 1.69434 15.2796 2.09505 19.5709C2.09686 19.5919 2.10865 19.612 2.12496 19.6247C4.09224 21.0694 5.99789 21.9465 7.86814 22.5279C7.89808 22.537 7.92979 22.5261 7.94884 22.5014C8.39125 21.8972 8.78562 21.2602 9.12375 20.5903C9.1437 20.5511 9.12466 20.5045 9.08387 20.489C8.45834 20.2517 7.8627 19.9624 7.28974 19.6339C7.24442 19.6074 7.24079 19.5426 7.28249 19.5115C7.40306 19.4212 7.52366 19.3272 7.63879 19.2323C7.65962 19.2149 7.68865 19.2113 7.71314 19.2222C11.4772 20.9408 15.5523 20.9408 19.272 19.2222C19.2965 19.2104 19.3255 19.214 19.3472 19.2314C19.4624 19.3263 19.583 19.4212 19.7045 19.5115C19.7462 19.5426 19.7434 19.6074 19.6981 19.6339C19.1252 19.9688 18.5295 20.2517 17.9031 20.4881C17.8623 20.5036 17.8442 20.5511 17.8641 20.5903C18.2095 21.2593 18.6039 21.8963 19.0381 22.5005C19.0562 22.5261 19.0889 22.537 19.1188 22.5279C20.9981 21.9465 22.9038 21.0694 24.871 19.6247C24.8883 19.612 24.8992 19.5928 24.901 19.5718C25.3805 14.6106 24.0977 10.301 21.5004 6.4806C21.494 6.46784 21.4832 6.4587 21.4705 6.45323ZM9.68586 16.9579C8.5526 16.9579 7.61884 15.9175 7.61884 14.6398C7.61884 13.362 8.53449 12.3216 9.68586 12.3216C10.8463 12.3216 11.771 13.3712 11.7528 14.6398C11.7528 15.9175 10.8372 16.9579 9.68586 16.9579ZM17.3283 16.9579C16.1951 16.9579 15.2613 15.9175 15.2613 14.6398C15.2613 13.362 16.1769 12.3216 17.3283 12.3216C18.4887 12.3216 19.4134 13.3712 19.3953 14.6398C19.3953 15.9175 18.4887 16.9579 17.3283 16.9579Z" fill="black"/>
</svg>
