<svg width="520" height="311" viewBox="0 0 520 311" fill="none" xmlns="http://www.w3.org/2000/svg">
<mask id="mask0_1428_278" style="mask-type:alpha" maskUnits="userSpaceOnUse" x="0" y="0" width="520" height="311">
<rect width="520" height="311" rx="32" fill="#141414"/>
</mask>
<g mask="url(#mask0_1428_278)">
<g opacity="0.1">
<rect x="160" y="216.889" width="146" height="186" rx="32" transform="rotate(-6.24784 160 216.889)" fill="#CBCBCB"/>
<path d="M214.542 283.782C213.492 283.897 212.623 283.751 211.935 283.343C211.275 282.9 210.698 282.191 210.205 281.215L197.599 255.168C197.021 254.008 196.988 252.965 197.498 252.04C198.009 251.115 198.995 250.573 200.459 250.413C201.477 250.301 202.282 250.454 202.875 250.872C203.5 251.287 204.043 251.984 204.504 252.963L213.616 272.681L218.633 251.465C218.872 250.409 219.251 249.611 219.771 249.071C220.288 248.499 221.008 248.163 221.93 248.062C222.821 247.964 223.565 248.14 224.161 248.59C224.754 249.008 225.299 249.721 225.796 250.729L235.082 270.717L239.956 249.082C240.167 248.061 240.532 247.281 241.052 246.741C241.569 246.169 242.321 245.83 243.307 245.722C244.547 245.586 245.501 245.916 246.167 246.712C246.834 247.508 247.011 248.535 246.698 249.793L239.936 278.008C239.694 279.033 239.283 279.834 238.703 280.413C238.151 280.956 237.365 281.283 236.348 281.395C235.33 281.506 234.492 281.356 233.836 280.946C233.176 280.503 232.599 279.793 232.106 278.817L222.977 259.826L218.083 280.401C217.809 281.429 217.398 282.23 216.849 282.805C216.329 283.345 215.56 283.671 214.542 283.782ZM259.257 278.452C258.016 278.588 257.043 278.373 256.337 277.806C255.628 277.208 255.207 276.304 255.075 275.095L252.207 248.9C252.075 247.691 252.292 246.734 252.858 246.028C253.421 245.29 254.307 244.855 255.516 244.723C257.965 244.455 259.328 245.577 259.603 248.09L262.199 271.804L274.987 270.404C277.118 270.171 278.297 271.088 278.523 273.156C278.753 275.255 277.802 276.422 275.671 276.655L259.257 278.452Z" fill="#141414"/>
</g>
<rect x="-24" y="36" width="273" height="124" rx="16" fill="#1C1C1C"/>
<g clip-path="url(#clip0_1428_278)">
<path d="M440.549 154.904C437.527 154.969 434.8 156.968 434.183 159.928L433.747 162.02C433.07 165.264 435.152 168.442 438.396 169.119L458.524 173.315C461.768 173.991 463.85 177.169 463.173 180.413L462.964 181.416C462.288 184.66 459.11 186.741 455.866 186.065L391.112 172.566C387.868 171.889 385.786 168.711 386.463 165.467L386.672 164.465C387.348 161.221 390.526 159.139 393.77 159.815L413.898 164.012C417.142 164.688 420.32 162.606 420.996 159.362L421.433 157.27C422.05 154.31 420.349 151.388 417.604 150.12C407.77 145.581 399.552 138.066 394.154 128.575C387.88 117.545 385.847 104.604 388.436 92.1813L395.186 59.8041C395.862 56.5601 399.04 54.4786 402.284 55.1549L492.539 73.9707C495.783 74.6469 497.865 77.8249 497.188 81.0689L490.439 113.446C487.849 125.869 480.814 136.919 470.655 144.524C461.915 151.067 451.378 154.672 440.549 154.904ZM373.403 68.5673C374.079 65.3233 377.257 63.2418 380.501 63.918L381.504 64.1271C384.748 64.8034 386.829 67.9814 386.153 71.2253L383.286 84.9785C382.609 88.2225 379.431 90.304 376.187 89.6277L375.185 89.4186C371.941 88.7424 369.859 85.5644 370.535 82.3204L373.403 68.5673ZM500.905 95.1482C501.582 91.9043 504.76 89.8227 508.004 90.499L509.007 90.7081C512.25 91.3844 514.332 94.5624 513.656 97.8063L510.789 111.559C510.112 114.803 506.934 116.885 503.69 116.209L502.687 116C499.444 115.323 497.362 112.145 498.038 108.901L500.905 95.1482Z" fill="#202020"/>
</g>
<g clip-path="url(#clip1_1428_278)">
<path d="M472.881 144.733C469.858 144.748 467.132 146.754 466.515 149.713L465.548 154.353C464.872 157.597 466.953 160.775 470.197 161.451L496.503 166.935C499.747 167.612 501.828 170.79 501.152 174.034L500.428 177.507C499.752 180.751 496.574 182.833 493.33 182.157L413.75 165.566C410.506 164.89 408.425 161.712 409.101 158.468L409.825 154.994C410.501 151.75 413.679 149.669 416.923 150.345L443.229 155.829C446.473 156.505 449.651 154.424 450.327 151.18L451.294 146.54C451.911 143.58 450.215 140.653 447.449 139.431C435.296 134.062 425.134 124.917 418.52 113.288C411.03 100.12 408.603 84.6718 411.694 69.8417L419.99 30.0519C420.666 26.8079 423.844 24.7264 427.088 25.4027L537.11 48.3393C540.354 49.0156 542.435 52.1936 541.759 55.4376L533.464 95.2273C530.372 110.057 521.974 123.249 509.847 132.327C499.136 140.345 486.167 144.667 472.881 144.733ZM393.985 40.5132C394.661 37.2693 397.839 35.1877 401.083 35.864L404.557 36.5882C407.801 37.2645 409.882 40.4425 409.206 43.6864L405.308 62.3813C404.632 65.6253 401.454 67.7068 398.21 67.0305L394.736 66.3064C391.492 65.6301 389.411 62.4521 390.087 59.2081L393.985 40.5132ZM546.196 72.2453C546.873 69.0014 550.051 66.9198 553.295 67.5961L556.768 68.3203C560.012 68.9966 562.094 72.1746 561.417 75.4185L557.52 94.1134C556.844 97.3574 553.666 99.4389 550.422 98.7626L546.948 98.0385C543.704 97.3622 541.623 94.1842 542.299 90.9402L546.196 72.2453Z" fill="#F8B148"/>
</g>
<rect x="19" y="63" width="252" height="112" rx="16" fill="#323232"/>
<rect x="283.242" y="193" width="146" height="186" rx="32" transform="rotate(10.6086 283.242 193)" fill="#CBCBCB"/>
<path d="M316.044 272.835C315.006 272.64 314.217 272.248 313.676 271.659C313.173 271.044 312.827 270.197 312.638 269.12L308.127 240.537C307.91 239.26 308.18 238.252 308.937 237.515C309.694 236.777 310.796 236.544 312.242 236.815C313.249 237.004 313.975 237.384 314.422 237.956C314.899 238.534 315.217 239.358 315.375 240.43L318.377 261.942L329.331 243.093C329.865 242.151 330.46 241.497 331.114 241.131C331.775 240.734 332.561 240.621 333.473 240.792C334.354 240.957 335.014 241.341 335.455 241.944C335.901 242.516 336.216 243.357 336.399 244.465L339.49 266.287L350.429 246.995C350.926 246.079 351.502 245.438 352.156 245.073C352.817 244.675 353.635 244.568 354.61 244.751C355.836 244.98 356.653 245.573 357.06 246.528C357.467 247.484 357.339 248.518 356.675 249.63L342.022 274.673C341.493 275.583 340.867 276.231 340.144 276.616C339.458 276.976 338.612 277.062 337.605 276.873C336.599 276.685 335.841 276.299 335.332 275.715C334.828 275.1 334.482 274.254 334.293 273.176L331.063 252.354L320.414 270.626C319.854 271.53 319.228 272.178 318.536 272.569C317.881 272.935 317.051 273.023 316.044 272.835ZM360.384 280.7C359.157 280.47 358.288 279.982 357.777 279.235C357.271 278.457 357.131 277.47 357.355 276.275L362.206 250.373C362.43 249.178 362.915 248.325 363.662 247.814C364.415 247.271 365.389 247.112 366.584 247.335C369.006 247.789 369.984 249.258 369.519 251.743L365.127 275.191L377.771 277.559C379.878 277.954 380.741 279.174 380.358 281.218C379.969 283.294 378.721 284.135 376.613 283.74L360.384 280.7Z" fill="#141414"/>
</g>
<line x1="48" y1="91" x2="83" y2="91" stroke="#88668E" stroke-width="16" stroke-linecap="round"/>
<line x1="48" y1="117" x2="241" y2="117" stroke="#828282" stroke-width="16" stroke-linecap="round"/>
<line x1="48" y1="143" x2="190" y2="143" stroke="#828282" stroke-width="16" stroke-linecap="round"/>
<defs>
<clipPath id="clip0_1428_278">
<rect width="156.293" height="156.293" fill="white" transform="translate(374.897 29.4888) rotate(11.776)"/>
</clipPath>
<clipPath id="clip1_1428_278">
<rect x="395.532" y="-5" width="186.581" height="186.581" transform="rotate(11.776 395.532 -5)" fill="white"/>
</clipPath>
</defs>
</svg>
