<svg width="402" height="239" viewBox="0 0 402 239" fill="none" xmlns="http://www.w3.org/2000/svg">
<path d="M326.492 128.355L330.95 176.186C331.046 177.214 331.909 178 332.942 178H390.585C391.577 178 392.419 177.273 392.563 176.292L399.688 128.007C400.032 125.681 396.777 124.773 395.866 126.94L390.8 138.998C389.994 140.914 387.163 140.483 386.965 138.414L385.276 120.767C385.05 118.404 381.627 118.333 381.304 120.685L378.314 142.389C378.001 144.662 374.73 144.704 374.359 142.439L367.768 102.169C367.389 99.8574 364.029 99.9678 363.803 102.299L359.289 148.915C359.072 151.159 355.885 151.384 355.355 149.192L344.242 103.29C343.685 100.99 340.298 101.394 340.298 103.761V143.9C340.298 146.147 337.163 146.686 336.413 144.567L330.369 127.502C329.583 125.282 326.274 126.01 326.492 128.355Z" fill="#1F7E39"/>
<path d="M328.75 178.188C328.347 173.516 332.031 169.5 336.72 169.5H386.404C391.048 169.5 394.716 173.442 394.383 178.074L390.801 227.861C390.35 234.138 385.126 239 378.832 239H345.009C338.781 239 333.589 234.236 333.053 228.032L328.75 178.188Z" fill="#1A4E8B"/>
<rect x="322" y="163" width="80" height="16" rx="8" fill="#1A4E8B"/>
<path d="M59 16C59 7.16345 66.1635 0 75 0H202C210.837 0 218 7.16344 218 16V239H59V16Z" fill="#101011"/>
<circle cx="138" cy="159" r="53" fill="#343434"/>
<circle cx="138" cy="57" r="30" fill="#343434"/>
<circle cx="138" cy="57" r="18" fill="#484848"/>
<circle cx="138" cy="159" r="36" fill="#484848"/>
<rect x="-3.05176e-05" y="190" width="360" height="38" rx="4" fill="#19191C"/>
<rect x="9.00003" y="178" width="293" height="8" rx="4" fill="#9C9CA8"/>
<rect x="317" y="178" width="26" height="12" fill="#50505B"/>
<rect x="328" y="158" width="4" height="20" fill="#50505B"/>
<rect x="238.828" y="177.062" width="4" height="94.909" rx="2" transform="rotate(-101.016 238.828 177.062)" fill="#50505B"/>
<!-- <path d="M292.639 209.273C292.639 210.313 292.439 211.195 292.039 211.918C291.639 212.641 291.097 213.191 290.414 213.566C289.734 213.942 288.971 214.129 288.124 214.129C287.275 214.129 286.51 213.94 285.83 213.561C285.15 213.183 284.61 212.634 284.21 211.913C283.813 211.19 283.614 210.31 283.614 209.273C283.614 208.232 283.813 207.351 284.21 206.627C284.61 205.904 285.15 205.355 285.83 204.979C286.51 204.604 287.275 204.416 288.124 204.416C288.971 204.416 289.734 204.604 290.414 204.979C291.097 205.355 291.639 205.904 292.039 206.627C292.439 207.351 292.639 208.232 292.639 209.273ZM290.303 209.273C290.303 208.657 290.216 208.137 290.04 207.712C289.868 207.288 289.619 206.966 289.292 206.748C288.969 206.529 288.58 206.42 288.124 206.42C287.672 206.42 287.283 206.529 286.956 206.748C286.63 206.966 286.379 207.288 286.204 207.712C286.032 208.137 285.945 208.657 285.945 209.273C285.945 209.888 286.032 210.408 286.204 210.833C286.379 211.258 286.63 211.579 286.956 211.798C287.283 212.016 287.672 212.126 288.124 212.126C288.58 212.126 288.969 212.016 289.292 211.798C289.619 211.579 289.868 211.258 290.04 210.833C290.216 210.408 290.303 209.888 290.303 209.273ZM302.02 204.545V214H300.081L296.319 208.543H296.259V214H293.973V204.545H295.94L299.661 209.993H299.739V204.545H302.02Z" fill="white"/>
<path d="M322.639 209.273C322.639 210.313 322.439 211.195 322.039 211.918C321.639 212.641 321.097 213.191 320.414 213.566C319.734 213.942 318.971 214.129 318.124 214.129C317.275 214.129 316.51 213.94 315.83 213.561C315.15 213.183 314.61 212.634 314.21 211.913C313.813 211.19 313.614 210.31 313.614 209.273C313.614 208.232 313.813 207.351 314.21 206.627C314.61 205.904 315.15 205.355 315.83 204.979C316.51 204.604 317.275 204.416 318.124 204.416C318.971 204.416 319.734 204.604 320.414 204.979C321.097 205.355 321.639 205.904 322.039 206.627C322.439 207.351 322.639 208.232 322.639 209.273ZM320.303 209.273C320.303 208.657 320.216 208.137 320.04 207.712C319.868 207.288 319.619 206.966 319.292 206.748C318.969 206.529 318.58 206.42 318.124 206.42C317.672 206.42 317.283 206.529 316.956 206.748C316.63 206.966 316.379 207.288 316.204 207.712C316.032 208.137 315.945 208.657 315.945 209.273C315.945 209.888 316.032 210.408 316.204 210.833C316.379 211.258 316.63 211.579 316.956 211.798C317.283 212.016 317.672 212.126 318.124 212.126C318.58 212.126 318.969 212.016 319.292 211.798C319.619 211.579 319.868 211.258 320.04 210.833C320.216 210.408 320.303 209.888 320.303 209.273ZM323.973 214V204.545H330.427V206.401H326.259V208.34H330.016V210.201H326.259V214H323.973ZM331.578 214V204.545H338.032V206.401H333.863V208.34H337.621V210.201H333.863V214H331.578Z" fill="#505050"/> -->
</svg>
