<svg width="24" height="24" viewBox="0 0 24 24" fill="none" xmlns="http://www.w3.org/2000/svg">
<path d="M19.1789 13.7988C16.6576 14.6746 14.676 16.6564 13.8001 19.1776L12.1653 23.8815C12.1413 23.9523 12.075 24 12.0002 24C11.9254 24 11.8588 23.9523 11.8348 23.8815L10.2002 19.1776C9.32433 16.6564 7.34273 14.6746 4.82143 13.7988L0.117125 12.1648C0.0471374 12.1403 0 12.0743 0 12C0 11.9257 0.0471345 11.8595 0.117125 11.8352L4.82143 10.2012C7.34273 9.32539 9.32433 7.34358 10.2002 4.82208L11.835 0.11826L11.8347 0.118546C11.8587 0.047704 11.9253 0 12.0001 0C12.075 0 12.1413 0.0477032 12.1653 0.118546L13.8001 4.82237V4.82208C14.676 7.3435 16.6576 9.32539 19.1789 10.2012L23.8832 11.8352H23.8829C23.9531 11.8595 24 11.9257 24 12C24 12.0743 23.9531 12.1403 23.8829 12.1648L19.1789 13.7988Z" fill="#8E8E8E"/>
</svg>
