<svg width="28" height="28" viewBox="0 0 28 28" fill="none" xmlns="http://www.w3.org/2000/svg">
<path d="M25.8544 6.59858C24.9637 6.99256 24.0192 7.2513 23.0521 7.36625C24.0714 6.75659 24.8344 5.7971 25.1987 4.66658C24.2421 5.23591 23.1932 5.63491 22.1001 5.85075C21.3658 5.06509 20.3925 4.54404 19.3315 4.3686C18.2705 4.19316 17.1813 4.37315 16.2332 4.88061C15.2851 5.38807 14.5312 6.19455 14.0887 7.17467C13.6462 8.1548 13.5399 9.25366 13.7864 10.3004C11.8463 10.2032 9.94844 9.69903 8.21589 8.82069C6.48333 7.94235 4.95487 6.70947 3.72972 5.20208C3.29606 5.94694 3.06817 6.79368 3.06939 7.65558C3.06939 9.34725 3.93039 10.8417 5.23939 11.7167C4.46473 11.6924 3.70712 11.4832 3.02972 11.1066V11.1672C3.02995 12.2939 3.41982 13.3858 4.13321 14.2578C4.8466 15.1298 5.83961 15.7283 6.94388 15.9517C6.22477 16.1466 5.47074 16.1753 4.73889 16.0357C5.05023 17.0055 5.65706 17.8536 6.47441 18.4614C7.29176 19.0691 8.2787 19.406 9.29705 19.4249C8.28495 20.2198 7.12609 20.8074 5.88675 21.1541C4.6474 21.5008 3.35187 21.5999 2.07422 21.4456C4.30453 22.8799 6.90083 23.6414 9.55255 23.6389C18.5277 23.6389 23.4359 16.2037 23.4359 9.75558C23.4359 9.54558 23.4301 9.33325 23.4207 9.12558C24.3761 8.43511 25.2006 7.57977 25.8556 6.59975L25.8544 6.59858Z" fill="black"/>
</svg>
