<svg width="40" height="40" viewBox="0 0 40 40" fill="none" xmlns="http://www.w3.org/2000/svg">
<path d="M21.6654 33.3333C22.5858 33.3333 23.332 34.0795 23.332 35C23.332 35.9204 22.5858 36.6666 21.6654 36.6666H4.9987C4.07822 36.6666 3.33203 35.9204 3.33203 35C3.33203 34.0795 4.07822 33.3333 4.9987 33.3333H21.6654ZM22.8945 2.55852C23.6755 1.777 24.9422 1.77678 25.7234 2.55802L35.8588 12.6934C36.6395 13.4741 36.6399 14.7396 35.8598 15.5209L35.5739 15.8072C35.1704 16.2113 34.573 16.3523 34.0314 16.1714C33.4904 15.9908 32.8938 16.1312 32.4903 16.5343L30.4363 18.5858C29.6544 19.3667 29.6541 20.6337 30.4354 21.415L37.2704 28.25C37.9212 28.9008 37.9212 29.9558 37.2704 30.6066C36.6196 31.2574 35.5645 31.2573 34.9138 30.6065L28.0796 23.7711C27.2986 22.9899 26.0321 22.9899 25.251 23.771L23.3461 25.6759C22.9196 26.1024 22.7482 26.7213 22.8945 27.3064C23.0408 27.8918 22.8692 28.511 22.4424 28.9374L22.1862 29.1934C21.4051 29.974 20.1392 29.9738 19.3583 29.1929L9.22341 19.058C8.44217 18.2768 8.44239 17.0101 9.22391 16.2291L9.48062 15.9726C9.90652 15.547 10.5244 15.3758 11.1085 15.5216C11.6929 15.6674 12.3109 15.4961 12.7368 15.0703L21.8818 5.92675C22.2854 5.5232 22.4265 4.92628 22.2461 4.38476C22.0659 3.84347 22.2067 3.24679 22.61 2.84324L22.8945 2.55852Z" fill="#139ADE"/>
</svg>
