<svg width="25" height="24" viewBox="0 0 25 24" fill="none" xmlns="http://www.w3.org/2000/svg">
<path d="M22.5 6H15.5C13.9087 6 12.3826 6.63214 11.2574 7.75736C10.1321 8.88258 9.5 10.4087 9.5 12C9.5 13.5913 10.1321 15.1174 11.2574 16.2426C12.3826 17.3679 13.9087 18 15.5 18H22.5V20C22.5 20.2652 22.3946 20.5196 22.2071 20.7071C22.0196 20.8946 21.7652 21 21.5 21H3.5C3.23478 21 2.98043 20.8946 2.79289 20.7071C2.60536 20.5196 2.5 20.2652 2.5 20V4C2.5 3.73478 2.60536 3.48043 2.79289 3.29289C2.98043 3.10536 3.23478 3 3.5 3H21.5C21.7652 3 22.0196 3.10536 22.2071 3.29289C22.3946 3.48043 22.5 3.73478 22.5 4V6ZM15.5 8H23.5V16H15.5C14.4391 16 13.4217 15.5786 12.6716 14.8284C11.9214 14.0783 11.5 13.0609 11.5 12C11.5 10.9391 11.9214 9.92172 12.6716 9.17157C13.4217 8.42143 14.4391 8 15.5 8V8ZM15.5 11V13H18.5V11H15.5Z" fill="#09121F"/>
</svg>
